<?xml version="1.0" ?><svg id="Layer_1" style="enable-background:new 0 0 512 512;" version="1.1" viewBox="0 0 512 512" xml:space="preserve" xmlns="http://www.w3.org/2000/svg" xmlns:xlink="http://www.w3.org/1999/xlink"><style type="text/css">
	.st0{fill:#FFFFFF;}
	.st1{fill:#010101;}
	.st2{fill:#B51E3A;}
	.st3{fill:#273775;}
</style><g><rect class="st0" height="298.7" width="512" y="106.7"/><rect class="st1" height="34.2" transform="matrix(0.8321 -0.5546 0.5546 0.8321 -38.6631 219.4498)" width="12.4" x="336.9" y="156.5"/><rect class="st1" height="34.2" transform="matrix(0.8321 -0.5547 0.5547 0.8321 -53.5593 237.5784)" width="12.4" x="359.4" y="190.1"/><rect class="st1" height="74.7" transform="matrix(0.8321 -0.5546 0.5546 0.8321 -37.761 235.3882)" width="12.4" x="363.7" y="142.7"/><rect class="st1" height="34.2" transform="matrix(0.8321 -0.5547 0.5547 0.8321 -21.9559 233.2306)" width="12.4" x="368" y="135.8"/><rect class="st1" height="34.2" transform="matrix(0.8321 -0.5547 0.5547 0.8321 -36.8561 251.3311)" width="12.4" x="390.4" y="169.4"/><rect class="st1" height="74.7" transform="matrix(0.8321 -0.5546 0.5546 0.8321 -151.8939 141.4211)" width="12.4" x="151.4" y="284.2"/><rect class="st1" height="34.2" transform="matrix(0.8321 -0.5547 0.5547 0.8321 -152.8013 125.5069)" width="12.4" x="124.7" y="298"/><rect class="st1" height="34.2" transform="matrix(0.8321 -0.5547 0.5547 0.8321 -167.7044 143.6055)" width="12.4" x="147.1" y="331.7"/><rect class="st1" height="74.7" transform="matrix(0.8321 -0.5546 0.5546 0.8321 -168.5963 127.6678)" width="12.4" x="120.3" y="305"/><rect class="st1" height="12.4" transform="matrix(0.5546 -0.8321 0.8321 0.5546 -88.2403 215.9703)" width="74.7" x="120.3" y="184.2"/><rect class="st1" height="12.4" transform="matrix(0.5546 -0.8321 0.8321 0.5546 -86.5429 198.4359)" width="74.7" x="104.8" y="173.8"/><rect class="st1" height="12.4" transform="matrix(0.5546 -0.8321 0.8321 0.5546 -84.8432 180.8989)" width="74.7" x="89.2" y="163.5"/><rect class="st1" height="12.4" transform="matrix(0.5547 -0.8321 0.8321 0.5547 -128.768 436.2368)" width="34.2" x="326" y="332.2"/><rect class="st1" height="12.4" transform="matrix(0.5546 -0.8321 0.8321 0.5546 -90.762 439.9558)" width="34.2" x="348.5" y="298.5"/><rect class="st1" height="12.4" transform="matrix(0.5547 -0.8321 0.8321 0.5547 -130.467 453.7723)" width="34.2" x="341.6" y="342.5"/><rect class="st1" height="12.4" transform="matrix(0.5547 -0.8321 0.8321 0.5547 -92.4732 457.4502)" width="34.2" x="364" y="308.9"/><rect class="st1" height="12.4" transform="matrix(0.5547 -0.8321 0.8321 0.5547 -132.1672 471.3084)" width="34.2" x="357.1" y="352.9"/><rect class="st1" height="12.4" transform="matrix(0.5547 -0.8321 0.8321 0.5547 -94.172 474.9854)" width="34.2" x="379.5" y="319.2"/><path class="st2" d="M193.9,214.6c-0.3,0.4-0.5,0.8-0.8,1.2C193.3,215.4,193.6,215,193.9,214.6"/><path class="st2" d="M297.4,193.9c-34.3-22.9-80.7-13.6-103.5,20.7c-11.4,17.2-6.8,40.3,10.4,51.8c17.2,11.4,40.3,6.8,51.8-10.4   c11.4-17.2,34.6-21.8,51.8-10.4c17.2,11.4,21.8,34.6,10.4,51.8C341,263.1,331.7,216.7,297.4,193.9"/><path class="st3" d="M193.9,214.6c-11.4,17.2-6.8,40.3,10.4,51.8c17.2,11.4,40.3,6.8,51.8-10.4c11.4-17.2,34.6-21.8,51.8-10.4   c17.2,11.4,21.8,34.6,10.4,51.8c-22.9,34.3-69.2,43.6-103.5,20.7S171,248.9,193.9,214.6"/></g></svg>