<?xml version="1.0" encoding="utf-8"?>
<!-- Generator: Adobe Illustrator 27.1.0, SVG Export Plug-In . SVG Version: 6.00 Build 0)  -->
<svg version="1.1" id="Layer_1" xmlns="http://www.w3.org/2000/svg" xmlns:xlink="http://www.w3.org/1999/xlink" x="0px" y="0px"
	 viewBox="0 0 140 16" style="enable-background:new 0 0 140 16;" xml:space="preserve">
<style type="text/css">
	.st0{fill:#FFFFFF;}
	.st1{opacity:0.6;}
	.st2{fill:#CCCCCC;}
</style>
<g>
	<g>
		<g>
			<path class="st0" d="M26.4,15l-5-12.9c-0.1-0.1-0.4-1-1.1-1h-1.5c-0.8,0-1.1,0.9-1.1,1l-5.1,12.8c-0.1,0.1,0,0.2,0,0.3
				c0.1,0.1,0.1,0.1,0.3,0.1h2.1c0.1,0,0.2-0.1,0.3-0.2l1.7-4.3h5.2l1.6,4.3c0.1,0.1,0.1,0.2,0.3,0.2H26c0.1,0,0.2-0.1,0.3-0.1
				C26.4,15.1,26.4,15,26.4,15z M17.7,8.5l1.7-4.8l1.6,4.8H17.7z"/>
		</g>
		<path class="st0" d="M30.6,10.5V15c0,0.1,0.1,0.3,0.3,0.3h1.9c0.1,0,0.3-0.1,0.3-0.3v-4.5l4.8-9.1c0.1-0.1,0.1-0.2,0-0.3
			c-0.1-0.1-0.1-0.1-0.3-0.1h-2.1c-0.1,0-0.2,0.1-0.3,0.1l-3.4,6.6l-3.3-6.6c-0.1-0.1-0.1-0.1-0.3-0.1H26c-0.1,0-0.2,0.1-0.3,0.1
			c-0.1,0.1-0.1,0.2,0,0.3L30.6,10.5z"/>
		<path class="st0" d="M8,10.3c0.8-0.2,1.5-0.6,2.2-1.3c0.8-0.8,1.3-2,1.3-3.1c0-1-0.3-1.8-0.8-2.6C10,2.6,9.5,2.1,8.8,1.7
			C8.6,1.6,8.3,1.5,8.1,1.4C7.2,1.1,6.4,1,5.2,1H1.9C1.6,1,1.3,1.3,1.3,1.6v13.5c0,0.1,0.1,0.3,0.3,0.3h1.8c0.1,0,0.3-0.1,0.3-0.3
			V8.8l4.8,6.4c0,0.1,0.1,0.1,0.1,0.1h2.3c0.1,0,0.2-0.1,0.3-0.1c0.1-0.1,0.1-0.2,0-0.3L8,10.3z M6.4,8.2C6.1,8.3,4,8.2,4,8.2
			c-0.1,0-0.2,0.1-0.3,0.1V3.3h1.7c1.1,0,1.8,0.1,2.2,0.4C8.1,4,8.3,4.3,8.5,4.6c0.2,0.4,0.4,0.8,0.4,1.3c0,0.4-0.1,0.8-0.4,1.2
			C8.3,7.4,8.1,7.6,7.7,7.8C7.3,8.1,7,8.2,6.4,8.2z"/>
		<path class="st0" d="M49.3,3.2h-3.4v11.7c0,0.2-0.1,0.4-0.4,0.4h-1.7c-0.2,0-0.4-0.1-0.4-0.4V3.2h-3.6c-0.2,0-0.4-0.1-0.4-0.4V1.4
			c0-0.2,0.1-0.4,0.4-0.4h9.4c0.2,0,0.4,0.1,0.4,0.4V3C49.8,3.2,49.6,3.2,49.3,3.2z"/>
		<path class="st0" d="M57.6,11.3h-5.7v0.1c0,1.1,0.4,2.2,2.1,2.2c1.3,0,2.4-0.1,3.1-0.2h0.1c0.2,0,0.4,0.1,0.4,0.3v1.2
			c0,0.3-0.1,0.4-0.4,0.4c-1.2,0.2-1.7,0.4-3.3,0.4c-1.7,0-4.1-1-4.1-4.3v-1.3c0-2.7,1.5-4.3,4-4.3c2.7,0,4,1.8,4,4.3v1
			C57.9,11.1,57.8,11.3,57.6,11.3z M55.6,9.7c0-1.3-0.8-2.1-1.8-2.1c-1.1,0-1.8,0.8-1.8,2.1l0,0H55.6L55.6,9.7z"/>
		<path class="st0" d="M67,15.1c-1.1,0.3-2.3,0.4-3.5,0.4c-2.8,0-4-1.6-4-4.3V10c0-2.7,1.3-4.3,4-4.3c1.1,0,2.4,0.2,3.5,0.4
			c0.4,0.1,0.4,0.2,0.4,0.4v8.2C67.5,14.9,67.4,15,67,15.1z M65.2,7.6c-0.4-0.1-1.1-0.1-1.6-0.1c-1.4,0-1.8,1.1-1.8,2.4v1.3
			c0,1.3,0.4,2.4,1.8,2.4c0.6,0,1.3-0.1,1.6-0.1V7.6z"/>
		<path class="st0" d="M81.6,15.4H80c-0.2,0-0.4-0.2-0.4-0.4V8.8c0-1.3-0.4-1.3-1.3-1.3H78c-1.1,0-1.2,0.5-1.2,1.3V15
			c0,0.2-0.1,0.4-0.4,0.4h-1.5c-0.2,0-0.4-0.2-0.4-0.4V8.8c0-0.8-0.1-1.3-1.2-1.3h-0.4c-0.8,0-1.3,0.3-1.3,1.3V15
			c0,0.2-0.1,0.4-0.4,0.4h-1.6c-0.2,0-0.4-0.2-0.4-0.4V8.8c0-2.2,1.3-3.3,3.5-3.3h0.4c1,0,1.7,0.3,2.2,0.7c0.5-0.4,1.3-0.7,2.2-0.7
			h0.4c2.2,0,3.5,1.2,3.5,3.3V15C82,15.3,81.8,15.4,81.6,15.4z"/>
		<path class="st0" d="M87.3,15.5c-0.7,0-2.1-0.1-3.1-0.4c-0.2-0.1-0.4-0.2-0.4-0.4v-1.1c0-0.1,0.1-0.3,0.4-0.3h0.1
			c0.8,0.1,2.4,0.2,2.9,0.2c1.1,0,1.3-0.4,1.3-0.8c0-0.4-0.2-0.5-0.8-0.9l-2.3-1.4c-0.8-0.5-1.4-1.3-1.4-2.4c0-1.7,1.1-2.6,3.3-2.6
			c1.3,0,2.2,0.1,3.1,0.4c0.2,0.1,0.4,0.2,0.4,0.4v1.1c0,0.2-0.1,0.4-0.4,0.4h-0.1c-0.5-0.1-1.8-0.2-2.9-0.2c-0.8,0-1.3,0.2-1.3,0.7
			c0,0.3,0.3,0.4,0.7,0.7l2.2,1.3c1.4,0.9,1.6,1.7,1.6,2.6C90.5,14.4,89.5,15.5,87.3,15.5z"/>
	</g>
	<g class="st1">
		<path class="st0" d="M107,15.5c-0.9,0-2.2-0.1-2.6-0.2c-0.2,0-0.4-0.2-0.4-0.4V6.1c0-0.3,0.1-0.4,0.4-0.4c0.4-0.1,1.6-0.2,2.6-0.2
			c2.6,0,4.1,1.4,4.1,4v2C111.1,14.1,109.6,15.5,107,15.5z M109.3,9.5c0-2-1-2.5-2.3-2.5c-0.4,0-0.8,0-1.1,0v6.8c0.3,0,0.6,0,1.1,0
			c1.3,0,2.3-0.5,2.3-2.5V9.5z"/>
		<path class="st0" d="M115.6,15.5c-2.1,0-3.1-1.3-3.1-3.2v-1.1c0-1.9,1.1-3.2,3.1-3.2c2.1,0,3.1,1.3,3.1,3.2v1.1
			C118.8,14.1,117.7,15.5,115.6,15.5z M117.1,11.1c0-1.1-0.4-1.8-1.4-1.8c-0.9,0-1.4,0.7-1.4,1.8v1.1c0,1.1,0.4,1.8,1.4,1.8
			c0.9,0,1.4-0.7,1.4-1.8V11.1z"/>
		<path class="st0" d="M124.7,15.4c-0.3,0.1-0.9,0.2-1.7,0.2c-1.7,0-3-1.1-3-3.2V11c0-2.2,1.3-3.2,3-3.2c0.8,0,1.4,0.1,1.7,0.2
			c0.2,0.1,0.3,0.1,0.3,0.4v0.9c0,0.1-0.1,0.2-0.3,0.2l0,0c-0.5-0.1-0.8-0.1-1.7-0.1c-0.6,0-1.3,0.4-1.3,1.7v1.3
			c0,1.3,0.6,1.7,1.3,1.7c0.9,0,1.2,0,1.7-0.1l0,0c0.1,0,0.3,0.1,0.3,0.2V15C125,15.2,124.9,15.3,124.7,15.4z"/>
		<path class="st0" d="M128.5,15.5c-0.5,0-1.6-0.1-2.3-0.3c-0.2,0-0.3-0.2-0.3-0.3v-0.8c0-0.1,0.1-0.2,0.2-0.2c0,0,0,0,0.1,0
			c0.6,0.1,1.8,0.2,2.2,0.2c0.8,0,0.9-0.3,0.9-0.6c0-0.3-0.2-0.4-0.5-0.6l-1.8-1.1c-0.6-0.4-1.1-1.1-1.1-1.8c0-1.3,0.8-2,2.5-2
			c1.1,0,1.7,0.1,2.3,0.3c0.2,0,0.3,0.2,0.3,0.3v0.7c0,0.2-0.1,0.3-0.2,0.3c0,0,0,0-0.1,0c-0.4-0.1-1.4-0.2-2.2-0.2
			c-0.6,0-0.9,0.2-0.9,0.5c0,0.2,0.2,0.4,0.5,0.5l1.7,1.1c1.1,0.6,1.3,1.3,1.3,2C131.1,14.5,130.3,15.5,128.5,15.5z"/>
	</g>
	<path class="st2" d="M97.5,15.8c-0.1,0-0.2-0.1-0.2-0.2v-10c0-0.1,0.1-0.2,0.2-0.2c0.1,0,0.2,0.1,0.2,0.2v10
		C97.6,15.7,97.6,15.8,97.5,15.8z"/>
</g>
</svg>
